<?xml version="1.0" encoding="UTF-8"?>
<svg version="1.1" viewBox="0 0 1598 1356" xmlns="http://www.w3.org/2000/svg">
<path transform="translate(859,57)" d="m0 0h738v2c-1.0681 0.6092-1.0681 0.6092-2.1577 1.2307-12.963 7.3959-25.92 14.802-38.842 22.269-8.9854 5.1923-17.986 10.357-27 15.5-13.358 7.6234-26.683 15.304-40 23-13.905 8.0357-27.821 16.051-41.77 24.01-9.4956 5.4189-18.971 10.872-28.437 16.343-8.5477 4.9368-17.119 9.8324-25.694 14.721-9.1592 5.2239-18.275 10.518-27.374 15.848-7.6548 4.4748-15.365 8.8443-23.094 13.191-6.8103 3.8378-13.575 7.7488-20.32 11.7-8.6592 5.0708-17.347 10.09-26.062 15.062-0.58347 0.33294-1.1669 0.66588-1.7681 1.0089-2.9691 1.6939-5.9387 3.3869-8.9087 5.0795-5.9013 3.3631-11.8 6.7303-17.698 10.099-0.5797 0.3311-1.1594 0.6622-1.7567 1.0033-12.729 7.2718-25.426 14.599-38.118 21.934-13.905 8.0357-27.821 16.051-41.77 24.01-9.4956 5.4189-18.971 10.872-28.437 16.343-8.5477 4.9368-17.119 9.8324-25.694 14.721-9.1578 5.2231-18.273 10.516-27.369 15.845-7.6819 4.4913-15.421 8.8744-23.182 13.228-7.9876 4.4962-15.875 9.1535-23.721 13.891-1.3011 0.77912-1.3011 0.77912-2.6284 1.574-0.76482 0.46189-1.5296 0.92377-2.3176 1.3997-1.8816 0.98706-1.8816 0.98706-3.8816 0.98706 4.1903 5.3228 8.7834 9.3964 14.074 13.613 2.9065 2.371 5.6695 4.8434 8.4258 7.3867 3.5779 3.2933 7.2154 6.4465 11 9.5 4.7574 3.8384 9.2578 7.8962 13.754 12.035 2.6648 2.3919 5.3944 4.6574 8.1836 6.9023 4.5349 3.6576 8.8179 7.5087 13.08 11.474 4.1107 3.8024 8.4057 7.3311 12.768 10.842 2.8216 2.3344 5.5208 4.766 8.2148 7.2461 3.5779 3.2933 7.2154 6.4465 11 9.5 4.756 3.8372 9.255 7.8939 13.75 12.031 2.6874 2.4125 5.4397 4.7013 8.25 6.9688 4.7574 3.8384 9.2578 7.8962 13.754 12.035 2.6648 2.3919 5.3944 4.6574 8.1836 6.9023 4.5349 3.6576 8.8179 7.5087 13.08 11.474 4.1107 3.8024 8.4057 7.3311 12.768 10.842 2.8216 2.3344 5.5208 4.766 8.2148 7.2461 3.5779 3.2933 7.2154 6.4465 11 9.5 4.756 3.8372 9.255 7.8939 13.75 12.031 2.6874 2.4125 5.4397 4.7013 8.25 6.9688 4.756 3.8372 9.255 7.8939 13.75 12.031 2.6874 2.4125 5.4397 4.7013 8.25 6.9688 4.7574 3.8384 9.2578 7.8962 13.754 12.035 2.6648 2.3919 5.3944 4.6574 8.1836 6.9023 4.5349 3.6576 8.8179 7.5087 13.08 11.474 4.1107 3.8024 8.4057 7.3311 12.768 10.842 2.8216 2.3344 5.5208 4.766 8.2148 7.2461 3.5779 3.2933 7.2154 6.4465 11 9.5 4.756 3.8372 9.255 7.8939 13.75 12.031 2.6874 2.4125 5.4397 4.7013 8.25 6.9688 4.7997 3.8754 9.3693 7.9505 13.906 12.129 3.0226 2.7631 6.113 5.4386 9.2305 8.0938 0.44988 0.42152 0.89977 0.84305 1.3633 1.2773v1h-537v-155h57v98l326-1c-6.7471-6.1849-13.211-12.06-20.285-17.754-2.8216-2.3344-5.5208-4.766-8.2148-7.2461-3.5779-3.2933-7.2154-6.4465-11-9.5-4.756-3.8372-9.255-7.8939-13.75-12.031-2.6874-2.4125-5.4397-4.7013-8.25-6.9688-4.756-3.8372-9.255-7.8939-13.75-12.031-2.6874-2.4125-5.4397-4.7013-8.25-6.9688-4.7574-3.8384-9.2578-7.8962-13.754-12.035-2.6648-2.3919-5.3944-4.6574-8.1836-6.9023-4.5349-3.6576-8.8179-7.5087-13.08-11.474-4.1107-3.8024-8.4057-7.3311-12.768-10.842-2.8216-2.3344-5.5208-4.766-8.2148-7.2461-3.5779-3.2933-7.2154-6.4465-11-9.5-4.756-3.8372-9.255-7.8939-13.75-12.031-2.6874-2.4125-5.4397-4.7013-8.25-6.9688-4.7574-3.8384-9.2578-7.8962-13.754-12.035-2.6648-2.3919-5.3944-4.6574-8.1836-6.9023-4.5349-3.6576-8.8179-7.5087-13.08-11.474-4.1107-3.8024-8.4057-7.3311-12.768-10.842-3.7805-3.1278-7.3597-6.4588-10.969-9.7812-2.6648-2.3919-5.3944-4.6574-8.1836-6.9023-1.266-1.0687-1.266-1.0687-2.5576-2.1589-2.9385-2.4517-2.9385-2.4517-6.1467-4.3347-4.626-3.247-8.1469-6.051-9.4878-11.74-0.88421-7.8268-0.46199-15.666-0.12039-23.516 0.060262-2.4068 0.115-4.8137 0.16406-7.2207 0.13154-5.8671 0.33169-11.729 0.58594-17.592 13.315-7.6986 26.641-15.378 40-23 10.086-5.755 20.153-11.542 30.207-17.353 7.9578-4.5962 15.935-9.1574 23.918-13.709 8.652-4.9335 17.28-9.9058 25.875-14.938 8.5555-5.0075 17.14-9.9615 25.75-14.875 0.58326-0.33288 1.1665-0.66576 1.7675-1.0087 4.7569-2.7143 9.5155-5.4257 14.274-8.137 4.1536-2.3668 8.3065-4.7347 12.458-7.1042 0.58192-0.33204 1.1638-0.66409 1.7634-1.0062 9.1207-5.2066 18.199-10.483 27.261-15.791 7.6546-4.4748 15.365-8.8441 23.093-13.19 6.8103-3.8378 13.575-7.7488 20.32-11.7 8.6592-5.0708 17.347-10.09 26.062-15.062 0.58347-0.33294 1.1669-0.66588 1.7681-1.0089 2.9691-1.6939 5.9387-3.3869 8.9087-5.0795 5.9013-3.3631 11.8-6.7303 17.698-10.099 0.5797-0.3311 1.1594-0.6622 1.7567-1.0033 12.729-7.2718 25.426-14.599 38.118-21.934 4.2912-2.4799 8.5828-4.9592 12.875-7.4375 1.0508-0.60683 2.1017-1.2137 3.1843-1.8389 5.8904-3.3981 11.788-6.7831 17.695-10.153 0.64393-0.36749 1.2879-0.73498 1.9513-1.1136 3.1316-1.7868 6.2641-3.5719 9.3978-5.3549 1.1197-0.63817 2.2394-1.2763 3.3931-1.9338 0.99185-0.56437 1.9837-1.1287 3.0056-1.7102 1.87-1.0911 3.6969-2.2568 5.4983-3.4578-154.11-0.33-308.22-0.66-467-1v100h-57v-157z"/>
<path transform="translate(1,57)" d="m0 0h738v157h-57v-100c-231.16 0.495-231.16 0.495-467 1 18.898 11.039 18.898 11.039 37.875 21.938 2.3729 1.352 4.7451 2.7051 7.1172 4.0586 0.5865 0.33458 1.173 0.66916 1.7773 1.0139 7.1609 4.0878 14.298 8.217 21.437 12.343 8.5479 4.9369 17.119 9.8326 25.694 14.722 9.1592 5.2239 18.275 10.518 27.374 15.848 6.7079 3.9212 13.454 7.7691 20.226 11.578 7.7698 4.3698 15.495 8.8071 23.188 13.312 8.6592 5.0708 17.347 10.09 26.062 15.062 0.58347 0.33294 1.1669 0.66588 1.7681 1.0089 2.9691 1.6939 5.9387 3.3869 8.9087 5.0795 5.9013 3.3631 11.8 6.7303 17.698 10.099 0.5797 0.3311 1.1594 0.6622 1.7567 1.0033 13.802 7.8847 27.565 15.835 41.327 23.789 12.836 7.4167 25.685 14.808 38.561 22.155 9.4956 5.4189 18.971 10.872 28.437 16.343 7.9578 4.5962 15.935 9.1574 23.918 13.709 11.82 6.7395 23.586 13.568 35.322 20.452 3.1743 1.8465 6.3633 3.6663 9.5535 5.4854 0.35792 7.0236 0.60129 14.045 0.76904 21.075 0.069981 2.3857 0.16521 4.7707 0.28711 7.1543 1.0399 20.873 1.0399 20.873-4.0349 27.151-2.8323 2.8662-5.9017 5.2353-9.2639 7.4462-2.6473 1.7674-5.0132 3.8087-7.4448 5.8607-0.88043 0.70512-1.7609 1.4102-2.668 2.1367-2.8029 2.3061-5.4746 4.7173-8.1445 7.1758-4.4473 4.0935-9.0472 7.9244-13.75 11.719-3.7891 3.1432-7.3827 6.4828-11.004 9.8164-2.6648 2.3919-5.3944 4.6574-8.1836 6.9023-3.9947 3.2219-7.808 6.5691-11.562 10.062-4.61 4.2896-9.3778 8.3041-14.285 12.254-2.8216 2.3344-5.5208 4.766-8.2148 7.2461-4.4473 4.0935-9.0472 7.9244-13.75 11.719-2.831 2.3484-5.5438 4.7903-8.25 7.2812-4.4473 4.0935-9.0472 7.9244-13.75 11.719-3.7891 3.1432-7.3827 6.4828-11.004 9.8164-2.6648 2.3919-5.3944 4.6574-8.1836 6.9023-3.9947 3.2219-7.808 6.5691-11.562 10.062-4.61 4.2896-9.3778 8.3041-14.285 12.254-2.8216 2.3344-5.5208 4.766-8.2148 7.2461-4.4473 4.0935-9.0472 7.9244-13.75 11.719-2.831 2.3484-5.5438 4.7903-8.25 7.2812-4.4473 4.0935-9.0472 7.9244-13.75 11.719-2.831 2.3484-5.5438 4.7903-8.25 7.2812-4.3668 4.0189-8.8594 7.8106-13.504 11.504-4.4436 3.7021-8.6971 7.627-12.996 11.496l326 1v-98h57v155h-537c6.6988-7.8152 6.6988-7.8152 11.188-11.312 3.9007-3.1089 7.6465-6.3047 11.312-9.6875 4.4473-4.0935 9.0472-7.9244 13.75-11.719 2.831-2.3484 5.5438-4.7903 8.25-7.2812 4.4473-4.0935 9.0472-7.9244 13.75-11.719 3.7891-3.1432 7.3827-6.4828 11.004-9.8164 2.6648-2.3919 5.3944-4.6574 8.1836-6.9023 3.9947-3.2219 7.808-6.5691 11.562-10.062 4.61-4.2896 9.3778-8.3041 14.285-12.254 2.8216-2.3344 5.5208-4.766 8.2148-7.2461 4.4473-4.0935 9.0472-7.9244 13.75-11.719 2.831-2.3484 5.5438-4.7903 8.25-7.2812 4.4473-4.0935 9.0472-7.9244 13.75-11.719 3.7891-3.1432 7.3827-6.4828 11.004-9.8164 2.6648-2.3919 5.3944-4.6574 8.1836-6.9023 3.9947-3.2219 7.808-6.5691 11.562-10.062 4.61-4.2896 9.3778-8.3041 14.285-12.254 2.8216-2.3344 5.5208-4.766 8.2148-7.2461 4.4473-4.0935 9.0472-7.9244 13.75-11.719 2.831-2.3484 5.5438-4.7903 8.25-7.2812 4.4473-4.0935 9.0472-7.9244 13.75-11.719 3.7891-3.1432 7.3827-6.4828 11.004-9.8164 2.6648-2.3919 5.3944-4.6574 8.1836-6.9023 3.9947-3.2219 7.808-6.5691 11.562-10.062 4.61-4.2896 9.3778-8.3041 14.285-12.254 2.8216-2.3344 5.5208-4.766 8.2148-7.2461 4.4473-4.0935 9.0472-7.9244 13.75-11.719 2.831-2.3484 5.5438-4.7903 8.25-7.2812 3.5779-3.2933 7.2154-6.4465 11-9.5 4.8262-3.8955 9.4157-7.9978 13.977-12.199 2.1783-1.9861 4.3903-3.9067 6.6484-5.8008 2.8722-2.1766 2.8722-2.1766 3.875-4.5-1.0612-0.39699-1.0612-0.39699-2.1438-0.802-3.0046-1.2602-5.7312-2.7418-8.5554-4.366-1.1131-0.63809-2.2262-1.2762-3.373-1.9336-1.2051-0.69524-2.4102-1.3906-3.6152-2.0859-1.2583-0.72292-2.5168-1.4456-3.7754-2.168-3.8483-2.2103-7.6931-4.4268-11.537-6.6445-1.6854-0.97187-1.6854-0.97187-3.4048-1.9634-4.2678-2.4616-8.5351-4.9241-12.801-7.3889-7.9179-4.573-15.853-9.1162-23.794-13.648-10.086-5.755-20.153-11.542-30.207-17.353-8.5477-4.9368-17.119-9.8324-25.694-14.721-9.1592-5.2239-18.275-10.518-27.374-15.848-6.7079-3.9212-13.454-7.7691-20.226-11.578-7.7698-4.3698-15.495-8.8071-23.188-13.312-8.6592-5.0708-17.347-10.09-26.062-15.062-0.58347-0.33294-1.1669-0.66588-1.7681-1.0089-2.9691-1.6939-5.9387-3.3869-8.9087-5.0795-5.9013-3.3631-11.8-6.7303-17.698-10.099-0.5797-0.3311-1.1594-0.6622-1.7567-1.0033-13.802-7.8847-27.565-15.835-41.327-23.789-12.836-7.4167-25.685-14.808-38.561-22.155-9.4956-5.4189-18.971-10.872-28.437-16.343-8.5477-4.9368-17.119-9.8324-25.694-14.721-9.1592-5.2239-18.275-10.518-27.374-15.848-6.7079-3.9212-13.454-7.7691-20.226-11.578-7.7698-4.3698-15.495-8.8071-23.188-13.312-8.6592-5.0708-17.347-10.09-26.062-15.062-0.58115-0.33161-1.1623-0.66322-1.761-1.0049-2.9612-1.6894-5.9229-3.3779-8.8849-5.0659-3.6461-2.0779-7.2913-4.1575-10.936-6.2378-0.60234-0.34379-1.2047-0.68757-1.8253-1.0418-4.1121-2.3475-8.2218-4.6992-12.331-7.052-4.1569-2.38-8.3208-4.747-12.492-7.1016-1.7566-0.99857-3.5131-1.9973-5.2695-2.9961-0.79865-0.44642-1.5973-0.89284-2.4202-1.3528-1.81-1.0343-3.5762-2.1449-5.3298-3.2722v-2z"/>
<path transform="translate(762)" d="m0 0h74c0.64434 36.796 0.64434 36.796 0.84241 50.383 0.019588 1.3433 0.019588 1.3433 0.039572 2.7137 0.61024 42.279 0.92124 84.561 1.1594 126.84 0.01406 2.49 0.028324 4.9799 0.042796 7.4699 0.49141 84.571 0.22377 169.15-18.225 744.64-0.29737 7.5332-0.59418 15.066-0.89096 22.6-4.0489 102.75-8.1784 205.51-12.465 308.25-0.23859 5.7192-0.47653 11.438-0.71389 17.158-0.36751 8.8551-0.7368 17.71-1.11 26.565-0.16771 3.9789-0.33469 7.9579-0.49941 11.937-0.14983 3.618-0.30223 7.2359-0.45665 10.854-0.080701 1.905-0.15881 3.8102-0.23679 5.7154-0.30121 6.981-0.77822 13.919-1.4859 20.87h-5c-0.030305-0.6985-0.06061-1.397-0.091833-2.1167-0.40083-9.2376-0.80196-18.475-1.2033-27.713-0.033417-0.76921-0.066834-1.5384-0.10126-2.331-0.95499-21.981-1.915-43.962-2.8812-65.942-4.3315-98.538-8.5503-197.08-14.625-344.03-0.18994-4.6174-0.38004-9.2347-0.5703-13.852-4.6621-113.15-9.2126-226.3-17.527-712.71 0.013594-2.5275 0.027182-5.0551 0.040764-7.5826 0.23222-42.623 0.55485-85.246 1.1424-127.87 0.01174-0.85192 0.02348-1.7038 0.035576-2.5816 0.22898-16.428 0.51065-32.855 0.78127-49.283z"/>
</svg>
