<?xml version="1.0" encoding="UTF-8"?>
<svg version="1.1" xmlns="http://www.w3.org/2000/svg" width="1598" height="1356">
<path d="M0 0 C243.54 0 487.08 0 738 0 C738 0.66 738 1.32 738 2 C736.93193115 2.60920288 736.93193115 2.60920288 735.84228516 3.23071289 C722.87905619 10.62657397 709.92218906 18.03257924 697 25.5 C688.01455156 30.69233783 679.013547 35.85666165 670 41 C656.64161987 48.62338204 643.31676114 56.30416025 630 64 C616.09506913 72.03574672 602.17876895 80.0505128 588.2300415 88.00997925 C578.73444767 93.42889381 569.25921566 98.88238875 559.79345703 104.35327148 C551.2457544 109.29011685 542.67489713 114.18567842 534.09976196 119.07461548 C524.94054522 124.29854122 515.82437935 129.59289755 506.72607422 134.92211914 C499.07123083 139.39689566 491.36058495 143.7663865 483.63232422 148.11279297 C476.82200715 151.95061921 470.05778909 155.86162428 463.3125 159.8125 C454.65326499 164.88328692 445.96570306 169.90200841 437.25 174.875 C436.66652802 175.20794067 436.08305603 175.54088135 435.48190308 175.88391113 C432.51277364 177.57781167 429.54315583 179.27085374 426.57324219 180.96337891 C420.67198324 184.32652044 414.77301988 187.69368174 408.875 191.0625 C408.29530457 191.39359772 407.71560913 191.72469543 407.11834717 192.06582642 C394.3893792 199.3376553 381.69257279 206.66488261 369 214 C355.09506913 222.03574672 341.17876895 230.0505128 327.2300415 238.00997925 C317.73444767 243.42889381 308.25921566 248.88238875 298.79345703 254.35327148 C290.2457544 259.29011685 281.67489713 264.18567842 273.09976196 269.07461548 C263.94196821 274.29772962 254.82685873 279.59066302 245.73046875 284.91992188 C238.04860564 289.41125117 230.30940824 293.79435495 222.54882812 298.14794922 C214.561202 302.64410259 206.67420687 307.30148944 198.82763672 312.03930664 C197.52656982 312.81842407 197.52656982 312.81842407 196.19921875 313.61328125 C195.43440186 314.07516846 194.66958496 314.53705566 193.8815918 315.01293945 C192 316 192 316 190 316 C194.19028005 321.32278817 198.78337919 325.39636041 204.07421875 329.61328125 C206.98074525 331.98429285 209.74371308 334.45664512 212.5 337 C216.07792463 340.29331699 219.71539666 343.44651321 223.5 346.5 C228.25739668 350.33835414 232.75783918 354.39622359 237.25390625 358.53515625 C239.91875166 360.92707297 242.64831825 363.19254884 245.4375 365.4375 C249.97236161 369.09506264 254.25536183 372.94617027 258.51708984 376.91162109 C262.62779276 380.71398807 266.92275584 384.24270592 271.28515625 387.75390625 C274.10673495 390.0883059 276.80590712 392.51990598 279.5 395 C283.07792463 398.29331699 286.71539666 401.44651321 290.5 404.5 C295.25595419 408.33719031 299.75504801 412.39385101 304.25 416.53125 C306.93737634 418.94378104 309.68965444 421.2325621 312.5 423.5 C317.25739668 427.33835414 321.75783918 431.39622359 326.25390625 435.53515625 C328.91875166 437.92707297 331.64831825 440.19254884 334.4375 442.4375 C338.97236161 446.09506264 343.25536183 449.94617027 347.51708984 453.91162109 C351.62779276 457.71398807 355.92275584 461.24270592 360.28515625 464.75390625 C363.10673495 467.0883059 365.80590712 469.51990598 368.5 472 C372.07792463 475.29331699 375.71539666 478.44651321 379.5 481.5 C384.25595419 485.33719031 388.75504801 489.39385101 393.25 493.53125 C395.93737634 495.94378104 398.68965444 498.2325621 401.5 500.5 C406.25595419 504.33719031 410.75504801 508.39385101 415.25 512.53125 C417.93737634 514.94378104 420.68965444 517.2325621 423.5 519.5 C428.25739668 523.33835414 432.75783918 527.39622359 437.25390625 531.53515625 C439.91875166 533.92707297 442.64831825 536.19254884 445.4375 538.4375 C449.97236161 542.09506264 454.25536183 545.94617027 458.51708984 549.91162109 C462.62779276 553.71398807 466.92275584 557.24270592 471.28515625 560.75390625 C474.10673495 563.0883059 476.80590712 565.51990598 479.5 568 C483.07792463 571.29331699 486.71539666 574.44651321 490.5 577.5 C495.25595419 581.33719031 499.75504801 585.39385101 504.25 589.53125 C506.93737634 591.94378104 509.68965444 594.2325621 512.5 596.5 C517.29973708 600.37539399 521.8692864 604.45046707 526.40625 608.62890625 C529.42884758 611.39203386 532.51924547 614.06749364 535.63671875 616.72265625 C536.08660156 617.14417969 536.53648437 617.56570313 537 618 C537 618.33 537 618.66 537 619 C359.79 619 182.58 619 0 619 C0 567.85 0 516.7 0 464 C18.81 464 37.62 464 57 464 C57 496.34 57 528.68 57 562 C164.58 561.67 272.16 561.34 383 561 C376.25287096 554.81513171 369.78896972 548.93990246 362.71484375 543.24609375 C359.89326505 540.9116941 357.19409288 538.48009402 354.5 536 C350.92207537 532.70668301 347.28460334 529.55348679 343.5 526.5 C338.74404581 522.66280969 334.24495199 518.60614899 329.75 514.46875 C327.06262366 512.05621896 324.31034556 509.7674379 321.5 507.5 C316.74404581 503.66280969 312.24495199 499.60614899 307.75 495.46875 C305.06262366 493.05621896 302.31034556 490.7674379 299.5 488.5 C294.74260332 484.66164586 290.24216082 480.60377641 285.74609375 476.46484375 C283.08124834 474.07292703 280.35168175 471.80745116 277.5625 469.5625 C273.02763839 465.90493736 268.74463817 462.05382973 264.48291016 458.08837891 C260.37220724 454.28601193 256.07724416 450.75729408 251.71484375 447.24609375 C248.89326505 444.9116941 246.19409288 442.48009402 243.5 440 C239.92207537 436.70668301 236.28460334 433.55348679 232.5 430.5 C227.74404581 426.66280969 223.24495199 422.60614899 218.75 418.46875 C216.06262366 416.05621896 213.31034556 413.7674379 210.5 411.5 C205.74260332 407.66164586 201.24216082 403.60377641 196.74609375 399.46484375 C194.08124834 397.07292703 191.35168175 394.80745116 188.5625 392.5625 C184.02763839 388.90493736 179.74463817 385.05382973 175.48291016 381.08837891 C171.37220724 377.28601193 167.07724416 373.75729408 162.71484375 370.24609375 C158.93432714 367.11832821 155.35519125 363.78726117 151.74609375 360.46484375 C149.08124834 358.07292703 146.35168175 355.80745116 143.5625 353.5625 C142.29647949 352.4938269 142.29647949 352.4938269 141.00488281 351.40356445 C138.0663759 348.95188997 138.0663759 348.95188997 134.8581543 347.06884766 C130.23217287 343.82182986 126.71129968 341.01789515 125.37039185 335.32870483 C124.4861818 327.50187339 124.90839906 319.66233926 125.25 311.8125 C125.31026235 309.40573208 125.36500301 306.99881921 125.4140625 304.59179688 C125.54560246 298.72467626 125.7457567 292.86301766 126 287 C139.31521614 279.30140846 152.64104992 271.62245425 166 264 C176.08592935 258.24499288 186.15263479 252.45754144 196.20654297 246.64672852 C204.16438754 242.05056393 212.14177199 237.48934053 220.125 232.9375 C228.77695951 228.00403214 237.40472125 223.03171489 246 218 C254.55549411 212.99254896 263.14024245 208.03845141 271.75 203.125 C272.3332605 202.79211975 272.916521 202.4592395 273.51745605 202.11627197 C278.27436898 199.40199484 283.03290718 196.69057169 287.79150391 193.97924805 C291.94508977 191.61248566 296.09800191 189.24454677 300.25 186.875 C300.83192108 186.54295563 301.41384216 186.21091125 302.01339722 185.86880493 C311.13412897 180.66223464 320.21232052 175.38551973 329.27441406 170.07763672 C336.92905385 165.60287144 344.63957372 161.23352426 352.36767578 156.88720703 C359.17799285 153.04938079 365.94221091 149.13837572 372.6875 145.1875 C381.34673501 140.11671308 390.03429694 135.09799159 398.75 130.125 C399.33347198 129.79205933 399.91694397 129.45911865 400.51809692 129.11608887 C403.48722636 127.42218833 406.45684417 125.72914626 409.42675781 124.03662109 C415.32801676 120.67347956 421.22698012 117.30631826 427.125 113.9375 C427.70469543 113.60640228 428.28439087 113.27530457 428.88165283 112.93417358 C441.6106208 105.6623447 454.30742721 98.33511739 467 91 C471.29122774 88.52007259 475.58282675 86.04079063 479.875 83.5625 C480.92582764 82.95567383 481.97665527 82.34884766 483.05932617 81.72363281 C488.9497518 78.3254994 494.84749935 74.94056617 500.75390625 71.5703125 C501.39783325 71.20282394 502.04176025 70.83533539 502.7052002 70.45671082 C505.83679255 68.66995088 508.96927458 66.88477471 512.10302734 65.10180664 C513.22273926 64.46364014 514.34245117 63.82547363 515.49609375 63.16796875 C516.48794678 62.60360107 517.4797998 62.0392334 518.50170898 61.45776367 C520.37170228 60.36661445 522.19856182 59.20095879 524 58 C369.89 57.67 215.78 57.34 57 57 C57 90 57 123 57 157 C38.19 157 19.38 157 0 157 C0 105.19 0 53.38 0 0 Z " fill="#000000" transform="translate(859,57)"/>
<path d="M0 0 C243.54 0 487.08 0 738 0 C738 51.81 738 103.62 738 157 C719.19 157 700.38 157 681 157 C681 124 681 91 681 57 C449.835 57.495 449.835 57.495 214 58 C232.89806314 69.03932631 232.89806314 69.03932631 251.875 79.9375 C254.2478847 81.28950803 256.62012509 82.64264364 258.9921875 83.99609375 C259.5786908 84.33067596 260.16519409 84.66525818 260.76947021 85.00997925 C267.93032504 89.09776523 275.06722797 93.22694641 282.20605469 97.35302734 C290.75395807 102.28988823 299.32494496 107.18558839 307.90023804 112.07461548 C317.05945478 117.29854122 326.17562065 122.59289755 335.27392578 127.92211914 C341.98182393 131.84334177 348.72769475 135.69122693 355.5 139.5 C363.26983997 143.86979081 370.99549293 148.30710911 378.6875 152.8125 C387.34673501 157.88328692 396.03429694 162.90200841 404.75 167.875 C405.33347198 168.20794067 405.91694397 168.54088135 406.51809692 168.88391113 C409.48722636 170.57781167 412.45684417 172.27085374 415.42675781 173.96337891 C421.32801676 177.32652044 427.22698012 180.69368174 433.125 184.0625 C433.70469543 184.39359772 434.28439087 184.72469543 434.88165283 185.06582642 C448.68335191 192.95048716 462.4467541 200.90121304 476.20898438 208.85449219 C489.04477473 216.27116011 501.89427768 223.66281802 514.7699585 231.00997925 C524.26555233 236.42889381 533.74078434 241.88238875 543.20654297 247.35327148 C551.16438736 251.94943597 559.14175805 256.51068402 567.125 261.0625 C578.94455615 267.802003 590.71053629 274.63067837 602.4465332 281.51464844 C605.62086939 283.36115971 608.80984314 285.18095884 612 287 C612.35791805 294.02357659 612.60129239 301.04477305 612.76904297 308.07543945 C612.83902445 310.46109843 612.93425496 312.84616606 613.05615234 315.22973633 C614.09608619 336.10269415 614.09608619 336.10269415 609.02124023 342.38061523 C606.18896663 345.24678503 603.11955893 347.61589297 599.75730896 349.82676697 C597.11005391 351.59415514 594.74406582 353.63547413 592.3125 355.6875 C591.43207031 356.39261719 590.55164063 357.09773438 589.64453125 357.82421875 C586.84160752 360.130317 584.16996725 362.54151531 581.5 365 C577.05272888 369.09351091 572.45282537 372.92442499 567.75 376.71875 C563.96094593 379.86194258 560.36730648 383.20158595 556.74609375 386.53515625 C554.08124834 388.92707297 551.35168175 391.19254884 548.5625 393.4375 C544.56776014 396.65943101 540.75445651 400.00655495 537 403.5 C532.38995664 407.78955113 527.62217044 411.80410672 522.71484375 415.75390625 C519.89326505 418.0883059 517.19409288 420.51990598 514.5 423 C510.05272888 427.09351091 505.45282537 430.92442499 500.75 434.71875 C497.91900422 437.06718968 495.20616402 439.50909902 492.5 442 C488.05272888 446.09351091 483.45282537 449.92442499 478.75 453.71875 C474.96094593 456.86194258 471.36730648 460.20158595 467.74609375 463.53515625 C465.08124834 465.92707297 462.35168175 468.19254884 459.5625 470.4375 C455.56776014 473.65943101 451.75445651 477.00655495 448 480.5 C443.38995664 484.78955113 438.62217044 488.80410672 433.71484375 492.75390625 C430.89326505 495.0883059 428.19409288 497.51990598 425.5 500 C421.05272888 504.09351091 416.45282537 507.92442499 411.75 511.71875 C408.91900422 514.06718968 406.20616402 516.50909902 403.5 519 C399.05272888 523.09351091 394.45282537 526.92442499 389.75 530.71875 C386.91900422 533.06718968 384.20616402 535.50909902 381.5 538 C377.13321476 542.01893321 372.64062934 545.81057155 367.99609375 549.50390625 C363.5524726 553.20595829 359.29897574 557.13092183 355 561 C462.58 561.33 570.16 561.66 681 562 C681 529.66 681 497.32 681 464 C699.81 464 718.62 464 738 464 C738 515.15 738 566.3 738 619 C560.79 619 383.58 619 201 619 C207.69876383 611.18477554 207.69876383 611.18477554 212.1875 607.6875 C216.0881864 604.57856321 219.83399595 601.38279344 223.5 598 C227.94727112 593.90648909 232.54717463 590.07557501 237.25 586.28125 C240.08099578 583.93281032 242.79383598 581.49090098 245.5 579 C249.94727112 574.90648909 254.54717463 571.07557501 259.25 567.28125 C263.03905407 564.13805742 266.63269352 560.79841405 270.25390625 557.46484375 C272.91875166 555.07292703 275.64831825 552.80745116 278.4375 550.5625 C282.43223986 547.34056899 286.24554349 543.99344505 290 540.5 C294.61004336 536.21044887 299.37782956 532.19589328 304.28515625 528.24609375 C307.10673495 525.9116941 309.80590712 523.48009402 312.5 521 C316.94727112 516.90648909 321.54717463 513.07557501 326.25 509.28125 C329.08099578 506.93281032 331.79383598 504.49090098 334.5 502 C338.94727112 497.90648909 343.54717463 494.07557501 348.25 490.28125 C352.03905407 487.13805742 355.63269352 483.79841405 359.25390625 480.46484375 C361.91875166 478.07292703 364.64831825 475.80745116 367.4375 473.5625 C371.43223986 470.34056899 375.24554349 466.99344505 379 463.5 C383.61004336 459.21044887 388.37782956 455.19589328 393.28515625 451.24609375 C396.10673495 448.9116941 398.80590712 446.48009402 401.5 444 C405.94727112 439.90648909 410.54717463 436.07557501 415.25 432.28125 C418.08099578 429.93281032 420.79383598 427.49090098 423.5 425 C427.94727112 420.90648909 432.54717463 417.07557501 437.25 413.28125 C441.03905407 410.13805742 444.63269352 406.79841405 448.25390625 403.46484375 C450.91875166 401.07292703 453.64831825 398.80745116 456.4375 396.5625 C460.43223986 393.34056899 464.24554349 389.99344505 468 386.5 C472.61004336 382.21044887 477.37782956 378.19589328 482.28515625 374.24609375 C485.10673495 371.9116941 487.80590712 369.48009402 490.5 367 C494.94727112 362.90648909 499.54717463 359.07557501 504.25 355.28125 C507.08099578 352.93281032 509.79383598 350.49090098 512.5 348 C516.07792463 344.70668301 519.71539666 341.55348679 523.5 338.5 C528.32622532 334.6045467 532.91574296 330.5022239 537.4765625 326.30078125 C539.654898 324.31465182 541.86689739 322.39404117 544.125 320.5 C546.99724889 318.32340861 546.99724889 318.32340861 548 316 C546.93881958 315.60300903 546.93881958 315.60300903 545.85620117 315.19799805 C542.85162654 313.9377666 540.12499202 312.45616691 537.30078125 310.83203125 C536.18767578 310.19394531 535.07457031 309.55585938 533.92773438 308.8984375 C532.72261549 308.20319565 531.51753848 307.5078812 530.3125 306.8125 C529.05419073 306.08957516 527.79572468 305.36692315 526.53710938 304.64453125 C522.68877028 302.43425107 518.84404707 300.21773404 515 298 C513.31463135 297.02812744 513.31463135 297.02812744 511.59521484 296.03662109 C507.32742358 293.57500283 503.06012727 291.11253413 498.79418945 288.64770508 C490.87627498 284.07473113 482.94166937 279.53152618 475 275 C464.91408633 269.24496542 454.84736534 263.45754152 444.79345703 257.64672852 C436.2457544 252.70988315 427.67489713 247.81432158 419.09976196 242.92538452 C409.94054522 237.70145878 400.82437935 232.40710245 391.72607422 227.07788086 C385.01817607 223.15665823 378.27230525 219.30877307 371.5 215.5 C363.73016003 211.13020919 356.00450707 206.69289089 348.3125 202.1875 C339.65326499 197.11671308 330.96570306 192.09799159 322.25 187.125 C321.66652802 186.79205933 321.08305603 186.45911865 320.48190308 186.11608887 C317.51277364 184.42218833 314.54315583 182.72914626 311.57324219 181.03662109 C305.67198324 177.67347956 299.77301988 174.30631826 293.875 170.9375 C293.29530457 170.60640228 292.71560913 170.27530457 292.11834717 169.93417358 C278.31664809 162.04951284 264.5532459 154.09878696 250.79101562 146.14550781 C237.95522527 138.72883989 225.10572232 131.33718198 212.2300415 123.99002075 C202.73444767 118.57110619 193.25921566 113.11761125 183.79345703 107.64672852 C175.2457544 102.70988315 166.67489713 97.81432158 158.09976196 92.92538452 C148.94054522 87.70145878 139.82437935 82.40710245 130.72607422 77.07788086 C124.01817607 73.15665823 117.27230525 69.30877307 110.5 65.5 C102.73016003 61.13020919 95.00450707 56.69289089 87.3125 52.1875 C78.65326504 47.11671311 69.96570658 42.09798551 61.25 37.125 C60.66885437 36.79338867 60.08770874 36.46177734 59.48895264 36.12011719 C56.52772484 34.43073749 53.56600721 32.7422188 50.60400391 31.05419922 C46.95790569 28.97625401 43.31271681 26.89671863 39.66796875 24.81640625 C39.06562408 24.47261932 38.46327942 24.1288324 37.84268188 23.77462769 C33.73056976 21.42709107 29.62084101 19.07542225 25.51171875 16.72265625 C21.35478376 14.34262881 17.19092555 11.97567625 13.01953125 9.62109375 C11.26294528 8.62252873 9.50642966 7.62383995 7.75 6.625 C6.95134521 6.17858154 6.15269043 5.73216309 5.32983398 5.2722168 C3.51980238 4.23788377 1.75362194 3.12732839 0 2 C0 1.34 0 0.68 0 0 Z " fill="#000000" transform="translate(1,57)"/>
<path d="M0 0 C24.42 0 48.84 0 74 0 C74.64434427 36.79551238 74.64434427 36.79551238 74.84240723 50.38284302 C74.86199534 51.72611883 74.86199534 51.72611883 74.88197917 53.09653153 C75.49221846 95.37558991 75.80321798 137.65801892 76.04134256 179.94060785 C76.05540253 182.43056948 76.0696664 184.92052998 76.0841381 187.41048926 C76.57555022 271.98196262 76.30790921 356.56028075 57.85900563 932.04953057 C57.56163794 939.58274499 57.26482312 947.11598115 56.96805048 954.64921904 C52.91919927 1057.40404175 48.78962356 1160.15563928 44.50273598 1262.90082629 C44.26414135 1268.62005748 44.02620548 1274.33931553 43.78884409 1280.05859802 C43.42133732 1288.91366965 43.05204107 1297.76866235 42.67879958 1306.62349428 C42.51108552 1310.60242713 42.34411014 1314.58138649 42.17939019 1318.56044452 C42.02955679 1322.17844917 41.87716052 1325.79633668 41.72273966 1329.41414835 C41.64203888 1331.31919214 41.56393218 1333.22434529 41.48594728 1335.12950219 C41.18473357 1342.11055185 40.70772481 1349.04810022 40 1356 C38.35 1356 36.7 1356 35 1356 C34.96969511 1355.30150196 34.93939021 1354.60300391 34.90816699 1353.88333926 C34.50734011 1344.64568963 34.10620412 1335.40805344 33.70487976 1326.17042542 C33.67146277 1325.40121171 33.63804577 1324.631998 33.60361614 1323.83947478 C32.64862577 1301.8585741 31.68864376 1279.87789926 30.7224056 1257.89749023 C26.39094927 1159.35970755 22.17211926 1060.81727343 16.09771633 913.86961323 C15.90777316 909.25224412 15.71767243 904.63488155 15.527421 900.01752514 C10.86534671 786.86861601 6.31486094 673.71262008 -2 187.3125 C-1.98640612 184.78495458 -1.97281801 182.25740913 -1.95923567 179.72986364 C-1.72701266 137.10673701 -1.40438994 94.48419844 -0.81684875 51.86434937 C-0.80510875 51.0124312 -0.79336874 50.16051304 -0.78127297 49.28277917 C-0.55229767 32.85465207 -0.27062406 16.42753081 0 0 Z " fill="#000000" transform="translate(762,0)"/>
</svg>
